<?xml version="1.0" encoding="UTF-8"?> <svg xmlns="http://www.w3.org/2000/svg" viewBox="0 0 1379.61 142.51"><g id="Calque_2" data-name="Calque 2"><g id="Calque_1-2" data-name="Calque 1"><path d="M79.75,14.19c-7.83-.6-11.45-1.6-17.27-2.21C61.07,23,58.86,43.72,58.26,67.43c-1.21,44.79,2,61.27,3.41,65.89a1.56,1.56,0,0,1-1.2,1.8,23.5,23.5,0,0,1-5.23.2,12.67,12.67,0,0,1-12.05-10.44C41,112.63,39.58,87.71,39,63a381.47,381.47,0,0,1,3-52C12.05,13.79,10.85,38.3,11.25,47.14c0,0,2,.4,2,1.4,0,1.81-1.81,1.41-1.81,1.41C1.61,49.75.2,39.3.2,39.3c-3-32.54,28.33-36,44-35.55a5.29,5.29,0,0,1,1.6-1.41c2.61-1.2,7-2.81,11.65-2.21a10.57,10.57,0,0,1,5.23,1.61,3.69,3.69,0,0,1,1,2.41c-.2.2-.2.4-.2.8,9.64.2,23.1.2,26.52-3,0,0,0-1.41.6-1.61,1.2-.6,1.41.81,1.41.81C92.81,4.35,94.82,15.4,79.75,14.19ZM51,3.75c-5.63-.2-4.83,5-4.83,5A21.1,21.1,0,0,1,51,3.75Z"></path><path d="M151.87,135.32c-16.07-.8-21.69-19.28-20.69-45.8,0,0,.8-30.13-1.41-28.92,0,0-17.27,30.73-20.49,67.69h-.2a6.62,6.62,0,0,1-1.2,3.82,9.68,9.68,0,0,1-6,3.42c-4.22.6-8.64-1.41-9.44-5.43-2.61-13.26-3.62-27.92-4-42-.8-22.9,0-47.21,7.43-69.31C98,12.59,101.65,1.74,109.28.53c6.43-1.2,16.88,0,18.08,7.43,1.41,7.64.2,16.08-1.4,23.51-3.22,16.27-10.65,31.54-19.89,45.4-.2,8.84,0,17.88.6,26.72,4.62-22.1,13.26-53.44,25.92-53.44,21.49.2,17.27,39.17,17.27,39.17-.8,18.68-2.21,39.17,3.22,39.78,0,0,10.44-2,21.49-46.81,0,0,.6-3.82,3.42-3.61,2.41.4,1.6,4,1.6,4S171.36,136.33,151.87,135.32ZM104.66,9.37S111.09,4,113.3,4C113.3,4,106.07,1.54,104.66,9.37Zm6.83,17.68a226.12,226.12,0,0,0-5,34.75C116.52,42.12,126,13.39,121.74,10,120.53,9,114.71,14,111.49,27.05Z"></path><path d="M177,72.85s6.63-25.11,28.73-21.9c0,0,18.08,2.21,14.06,28.93C217,98.56,203.1,106.4,193.45,109.41c1.21,10.45,5,18.68,11.66,19.49,0,0,24.3-1.81,35.15-46.61,0,0,.6-3.82,3.41-3.61,2.42.4,1.61,4,1.61,4s-5.62,52.23-39.37,52.63C169.15,136.73,170,94.55,177,72.85ZM188,61.8s7-6,10-7C198.07,54.77,190.64,52.56,188,61.8Zm5,40.18a28.33,28.33,0,0,0,18.89-20.69c3.61-16.27-6-22.9-6-22.9-6,.2-11.45,28.92-11.45,28.92A72.2,72.2,0,0,0,193.05,102Z"></path><path d="M295.1,52c-2.41-2.61-8.24-10.05,1.81-17.28,6.43-4.82,19.68-6.22,32.94-7.83C336.28,13.39,345.52.73,357.37.13c0,0,6.63-.6,10.45,3.42,2.41,2.41,4.22,7.43.4,15.26-4.22,8.64-14.86,12.86-24.71,15.47A302.26,302.26,0,0,0,336.08,65c-5.22,34.55,1.61,61.26,12.66,62.67,0,0,31.74-.6,40.37-45.4,0,0,.61-3.82,3.22-3.61,2.61.4,1.81,4,1.81,4s-6,51.43-44.8,52.63c-38.57,1-37.37-48.41-30.94-75.93A177.12,177.12,0,0,1,325,37.9c-10.64,2-24.51,5-27.12,11.85,0,0,.4,2-.2,2.61C296.51,53.36,295.1,52,295.1,52Zm50-41.58C348.33,7,355,3.55,355,3.55A9.2,9.2,0,0,0,345.12,10.38Zm2,13.86c7.43-1.61,13.46-4,16.07-8s2-7.23.8-8.64a3.24,3.24,0,0,0-2.81-1.2C355.77,6.36,351,14.19,347.13,24.24Z"></path><path d="M450.59,135.32c-16.07-.8-21.7-19.28-20.69-45.8,0,0,.8-30.13-1.41-28.92,0,0-17.28,30.73-20.49,67.69h-.2a6.56,6.56,0,0,1-1.21,3.82,9.63,9.63,0,0,1-6,3.42c-4.22.6-8.64-1.41-9.44-5.43-2.62-13.26-3.62-27.92-4-42-.81-22.9,0-47.21,7.43-69.31C396.75,12.59,400.37,1.74,408,.53c6.43-1.2,16.87,0,18.08,7.43,1.4,7.64.2,16.08-1.41,23.51C421.46,47.74,414,63,404.79,76.87c-.21,8.84,0,17.88.6,26.72,4.62-22.1,13.26-53.44,25.91-53.44,21.5.2,17.28,39.17,17.28,39.17-.81,18.68-2.21,39.17,3.21,39.78,0,0,10.45-2,21.5-46.81,0,0,.6-3.82,3.41-3.61,2.41.4,1.61,4,1.61,4S470.07,136.33,450.59,135.32ZM403.38,9.37S409.81,4,412,4C412,4,404.79,1.54,403.38,9.37Zm6.83,17.68a226.12,226.12,0,0,0-5,34.75c10-19.68,19.48-48.41,15.26-51.83C419.25,9,413.42,14,410.21,27.05Z"></path><path d="M544.2,83.9c-1.81,6.63-8.84,14.66-19.09,14.46-23.7-.4-18.48-34.75-18.48-34.75-5.82,9.84-13.66,35-14.86,57.25.2,2.21.6,4.42.8,6.63a6.49,6.49,0,0,1-1.2,4.62,9.68,9.68,0,0,1-6,3.42c-4.22.6-8.64-1.41-9.44-5.43-2.61-13.26-3.62-27.92-4-42A242.79,242.79,0,0,1,473.69,55a8,8,0,0,1,5.82-6.43A13,13,0,0,1,490.16,50,5.94,5.94,0,0,1,493,56.18c-.8,4.22-2,12.05-2.81,21.49-.4,5.22-.6,9.44-.8,12.25,4.42-17.87,11.85-39.77,22.5-39.77,12,.2,13,11.45,13.46,22.3a59.86,59.86,0,0,1-2.42,16.47c-1.2,3.62,9,6.23,15.07-6.23,0,0,1.81-4.62,4.62-3.81C545.6,79.68,544.2,83.9,544.2,83.9ZM484.34,51.76s-7.44-2.21-7.64,6.43C476.7,58.19,480.12,53.57,484.34,51.76Z"></path><path d="M585.78,82.69s-8.23,53.64-27.72,52.63C531.54,134.12,537,75.66,539,59.19a7,7,0,0,1,4.82-5.83c3-.8,6.83-1.4,10,.21A8.22,8.22,0,0,1,558.26,62c-1.81,14.06-8,66.09,1,67.1,0,0,10.44-2,21.49-46.81,0,0,.6-3.82,3.42-3.61C586.59,79.08,585.78,82.69,585.78,82.69Zm-39-26.31s-5.82-1.81-5.42,8.84A19.33,19.33,0,0,1,546.81,56.38Zm5.63-32.95c6.63.81,8.43,9.24,5.62,16.88s-7.83,7.43-9.44,6.63c0,0-7.84-2.82-4.82-15.87C543.8,31.07,545.81,22.83,552.44,23.43Zm-.2,2.82c-6.23-.81-5,5.82-5,5.82C548.42,28.86,552.24,26.25,552.24,26.25Z"></path><path d="M579.35,132.91c-2.21-5.62,1.41-20.08,11.45-32.54C581.16,84.9,580,70.64,580,70.64c-2.41-16.07,14.26-21.09,14.26-21.09s10.44-4.22,15.47,4c3.81,5.82-.61,14.86-7.44,21.49,1,3.21,2.41,7,4,11.25a57.35,57.35,0,0,1,22.1-7.43s4.62-1,5,1.6c.8,3.42-3.41,4.22-3.41,4.22-11.86,2.41-17.08,5-21.1,7.84,5,11.85,12.86,30.13,3.42,41.18C600.85,147.38,583.37,143.56,579.35,132.91Zm9.85-75.73c-7.84,2.41-4.62,10.05-4.62,10.05C585.18,63.21,589.2,57.18,589.2,57.18Zm.6,76.94c6.43,2.21,11.05-5.22,11.05-5.22,3.61-8-3.62-19.29-6.23-22.9A32.78,32.78,0,0,0,589.8,134.12ZM600,68.63c3.22-3.61,3.42-7.23,2.82-9.44-1.21-3.82-4.42-3-4.42-3S596.63,57,600,68.63Z"></path><path d="M625.76,32.27a78.09,78.09,0,0,1-15.27-.6,3.4,3.4,0,0,1-2.21-3.21s-.8-3.62,1.61-3.22a87.87,87.87,0,0,0,16.27.8c.4-7.83.8-14.46,1.21-18.88a7.32,7.32,0,0,1,5-6.63A11.87,11.87,0,0,1,644,3.34,4.58,4.58,0,0,1,645.44,7c-.2,3-.6,9.24-1.2,17.28,8.44-.81,16.87-1.41,25.31,0,1.21.2,2.21,1.6,2.41,3.21,0,0,1,3.62-1.61,3.21-8.83-1.4-17.67-.8-26.31,0-1.81,36.16-3.62,97.63,3.61,98.44,0,0,11.86-1.61,22.7-46.41,0,0,.81-4,3.62-4,3.21.2,2,4.82,2,4.82s-10.05,50.22-29.33,51.82C623.35,137.33,623.75,72.65,625.76,32.27ZM635,3.14s-6-.4-4.62,6.43C630.38,9.57,633.19,4.15,635,3.14Z"></path><path d="M782.85,82.69s-8.24,53.64-27.72,52.63c-16.08-.8-21.7-19.28-20.7-45.8,0,0,.81-30.13-1.4-28.92,0,0-3.62,11.45-7.43,28.72,0,0-3,14.47-3.82,19.29-1.21,6.83-8.64,5.42-8.64,5.42-13.66-1-11.45-44-11.45-44-7.43,9-11.65,58.86-11.65,58.86a4.89,4.89,0,0,1-1.21,3.21,9.63,9.63,0,0,1-6,3.42c-4.22.6-8.64-1.41-9.44-5.43-2.62-13.26-3.62-27.92-4-42A242.79,242.79,0,0,1,671.16,55,8,8,0,0,1,677,48.54,13,13,0,0,1,687.63,50a6,6,0,0,1,2.81,6.23A256.72,256.72,0,0,0,687,87.71a91.08,91.08,0,0,0,0,10.45c2.21-16.67,6.83-39.17,15.26-40.38,4.42-.8,10.65,1.21,12.86,5,2.61,4.42,3.82,17.07,4.22,21.49,3.21-15.27,8.23-34.15,16.47-34.15,21.5.2,17.28,39.17,17.28,39.17-.81,18.68-2.21,39.17,3.21,39.78,0,0,10.45-2,21.5-46.81,0,0,.6-3.82,3.41-3.61C783.65,79.08,782.85,82.69,782.85,82.69ZM680.2,51.56s-6.43-1.61-5.83,6.22C674.37,57.78,677.18,53.16,680.2,51.56Z"></path><path d="M819.61,102.18c-5,14.46-13.66,33.95-24.51,33.14-16.87-1-23.3-33.94-15.87-62.47,0,0,6.23-24.71,28.33-21.49,5.82.8,9.84,4.42,12.65,8.63.21-2,.41-3.61.41-5a7.43,7.43,0,0,1,5-5.82c2.81-.81,6.63-1.41,10,.4a7.94,7.94,0,0,1,4.22,8.23c-1.81,14.27-8.44,70.31.8,71.32,0,0,10.45-2,21.5-46.81,0,0,.6-3.82,3.21-3.61,2.61.4,1.81,4,1.81,4S859,136.33,839.5,135.32C826.64,134.72,821.22,119.45,819.61,102.18ZM789.48,62.81s6.23-5.83,8.44-6.43C797.92,56.38,789.88,55.17,789.48,62.81Zm28.73,19.28c-1.41-10.65-5.23-23.5-10.45-23.3-6,.2-11.25,28.52-11.25,28.52-4.82,31.74-.2,40.58-.2,40.58C805.15,127.09,815.59,91.53,818.21,82.09Z"></path><path d="M861.6,132.91c-2.21-5.62,1.4-20.08,11.45-32.54C863.41,84.9,862.2,70.64,862.2,70.64c-2.41-16.07,14.26-21.09,14.26-21.09s10.45-4.22,15.47,4c3.82,5.82-.6,14.86-7.43,21.49,1,3.21,2.41,7,4,11.25a57.3,57.3,0,0,1,22.09-7.43s4.62-1,5,1.6c.8,3.42-3.42,4.22-3.42,4.22-11.85,2.41-17.07,5-21.09,7.84,5,11.85,12.85,30.13,3.41,41.18C883.09,147.38,865.62,143.56,861.6,132.91Zm9.84-75.73c-7.83,2.41-4.62,10.05-4.62,10.05C867.42,63.21,871.44,57.18,871.44,57.18Zm.6,76.94c6.43,2.21,11.05-5.22,11.05-5.22,3.62-8-3.61-19.29-6.22-22.9A32.76,32.76,0,0,0,872,134.12Zm10.25-65.49c3.21-3.61,3.41-7.23,2.81-9.44-1.2-3.82-4.42-3-4.42-3S878.87,57,882.29,68.63Z"></path><path d="M961.44,43.12C956.22,9,986.35,4.35,1002,4.35a10.34,10.34,0,0,1,2.21-2c2.61-1.2,7-2.81,11.65-2.21a9.79,9.79,0,0,1,5.22,1.61,2.45,2.45,0,0,1,1,2.41,8.3,8.3,0,0,0-.21,1c9.85.2,23.11,0,26.72-3.21,0,0,0-1.41.6-1.61,1-.6,1.21.81,1.21.81,1,3.21,2.81,14.26-12,13.05-8-.6-11.45-1.6-17.48-2.21-1.2,9.85-3.21,27.32-4,47.81,10.45,0,12.66-3.41,13.46-5.82,0,0-.4-2,.2-2.41,1.21-.81,1.81.6,1.81.6a20.72,20.72,0,0,1,1.41,5.42c.6,8.44-5.63,9.24-17.08,8.24,0,5.22-.2,9.84-.2,14.26-.2,35.36,2.41,49.22,3.62,53.24a1.56,1.56,0,0,1-1.21,1.8,23.06,23.06,0,0,1-5.22.2,12.65,12.65,0,0,1-12-10.44c-2-11.85-3.42-36-4-60.27-5.43.41-7.64,1.61-8.44,2.41-.2.41-.6.21-.8-.2-1.21-5.22,3.61-7.23,9-7.83a318.45,318.45,0,0,1,3.21-47.81c-29.73,3-28.73,29.93-27.52,38.77,0,0,2,.4,2.21,1.41,0,1.6-1.81,1.4-1.81,1.4C963.65,53.36,961.44,43.12,961.44,43.12Zm42.79-34.75a22.71,22.71,0,0,1,4.82-4.82C1003.22,3.34,1004.23,8.37,1004.23,8.37Z"></path><path d="M1085.39,102.18c-5,14.46-13.66,33.95-24.51,33.14-16.87-1-23.3-33.94-15.87-62.47,0,0,6.23-24.71,28.33-21.49,5.82.8,9.84,4.42,12.65,8.63.2-2,.4-3.61.4-5a7.43,7.43,0,0,1,5-5.82c2.81-.81,6.62-1.41,10,.4a8,8,0,0,1,4.22,8.23c-1.81,14.27-8.44,70.31.8,71.32,0,0,10.45-2,21.5-46.81,0,0,.6-3.82,3.21-3.61,2.61.4,1.81,4,1.81,4s-8.24,53.64-27.72,52.63C1092.42,134.72,1087,119.45,1085.39,102.18Zm-30.13-39.37s6.22-5.83,8.43-6.43C1063.69,56.38,1055.66,55.17,1055.26,62.81ZM1084,82.09c-1.4-10.65-5.22-23.5-10.44-23.3-6,.2-11.25,28.52-11.25,28.52-4.82,31.74-.2,40.58-.2,40.58C1070.92,127.09,1081.37,91.53,1084,82.09Z"></path><path d="M1189.25,104.19s-5.83,34.15-27.52,31.13c0,0-12.26-.2-17.08-18.07,0,5.82.2,10.24.2,12.25a6,6,0,0,1-1.61,4.42,8.78,8.78,0,0,1-6.42,2.81c-8.44.4-8.84-6.23-8.84-6.23S1120.34,8.77,1144.05,1.34c0,0,15.26-4.42,18.88,6,0,0,8.84,31.74-18.28,71.11-.2,5.23-.2,10.45-.2,15.27,5.42-15.47,15.07-37.56,25.11-37.76C1184.83,55.37,1195.07,73.65,1189.25,104.19ZM1149.07,4s-7.23-2.41-8.64,5.42C1140.43,9.37,1146.86,4,1149.07,4Zm-4,60.26c17.48-30.73,12.26-54.44,12.26-54.44C1149.67,11.18,1146.46,36.89,1145.05,64.21Zm24.11,1.21c-7-.61-15.67,22.9-20.89,39.17,1.4,9.84,6.83,23.5,13.46,22.1,5.62-1,10.24-25.92,10.24-25.92C1176.59,71.64,1169.16,65.42,1169.16,65.42Z"></path><path d="M1272.81,83.9c-1.81,6.63-8.84,14.66-19.08,14.46-23.71-.4-18.48-34.75-18.48-34.75-5.83,9.84-13.66,35-14.87,57.25.2,2.21.6,4.42.8,6.63a6.49,6.49,0,0,1-1.2,4.62,9.68,9.68,0,0,1-6,3.42c-4.22.6-8.64-1.41-9.44-5.43-2.61-13.26-3.62-27.92-4-42A242.79,242.79,0,0,1,1202.3,55a8,8,0,0,1,5.83-6.43A13,13,0,0,1,1218.77,50a6,6,0,0,1,2.82,6.23c-.81,4.22-2,12.05-2.82,21.49-.4,5.22-.6,9.44-.8,12.25,4.42-17.87,11.85-39.77,22.5-39.77,12,.2,13.06,11.45,13.46,22.3a60.06,60.06,0,0,1-2.41,16.47c-1.21,3.62,9,6.23,15.06-6.23,0,0,1.81-4.62,4.62-3.81C1274.22,79.68,1272.81,83.9,1272.81,83.9ZM1213,51.76s-7.44-2.21-7.64,6.43C1205.31,58.19,1208.73,53.57,1213,51.76Z"></path><path d="M1314.39,82.69s-8.23,53.64-27.72,52.63c-26.51-1.2-21.09-59.66-19.08-76.13a7,7,0,0,1,4.82-5.83c3-.8,6.83-1.4,10,.21a8.21,8.21,0,0,1,4.42,8.43c-1.8,14.06-8,66.09,1,67.1,0,0,10.44-2,21.49-46.81,0,0,.6-3.82,3.42-3.61C1315.2,79.08,1314.39,82.69,1314.39,82.69Zm-39-26.31s-5.82-1.81-5.42,8.84A19.43,19.43,0,0,1,1275.42,56.38Zm5.63-32.95c6.63.81,8.44,9.24,5.62,16.88s-7.83,7.43-9.44,6.63c0,0-7.83-2.82-4.82-15.87C1272.41,31.07,1274.42,22.83,1281.05,23.43Zm-.2,2.82c-6.23-.81-5,5.82-5,5.82C1277,28.86,1280.85,26.25,1280.85,26.25Z"></path><path d="M1379.48,82.69s-5.63,52.23-39.37,52.63c-36.77,1.41-36-40.77-28.93-62.47,0,0,7.23-27.52,29.13-24.31,17.27,3.42,20.89,13.86,13.86,29.53a1.85,1.85,0,0,1-3.42-.6c-1.4-10.24-5.22-21.69-10.24-21.49-5.83.2-11.85,31.33-11.85,31.33-3.62,18.89-.41,40.18,10.64,41.59,0,0,24.31-1.81,35.16-46.61,0,0,.6-3.82,3.41-3.61C1380.28,79.08,1379.48,82.69,1379.48,82.69ZM1321.83,61.8s7-6,9.84-7C1331.67,54.77,1324.44,52.56,1321.83,61.8Z"></path></g></g></svg> 